<svg xmlns="http://www.w3.org/2000/svg" width="10" height="12" fill="none"><path fill="#585D6E" d="M5 0C2.36 0 .2 2.16.2 4.8c0 3.24 4.2 6.9 4.38 7.08.12.06.3.12.42.12s.3-.06.42-.12C5.6 11.7 9.8 8.04 9.8 4.8 9.8 2.16 7.64 0 5 0Zm0 10.62C3.74 9.42 1.4 6.84 1.4 4.8c0-1.98 1.62-3.6 3.6-3.6s3.6 1.62 3.6 3.6S6.26 9.42 5 10.62ZM5 2.4c-1.32 0-2.4 1.08-2.4 2.4 0 1.32 1.08 2.4 2.4 2.4 1.32 0 2.4-1.08 2.4-2.4 0-1.32-1.08-2.4-2.4-2.4ZM5 6c-.66 0-1.2-.54-1.2-1.2 0-.66.54-1.2 1.2-1.2.66 0 1.2.54 1.2 1.2C6.2 5.46 5.66 6 5 6Z"/></svg>