<svg xmlns="http://www.w3.org/2000/svg" width="14" height="18" fill="none"><path stroke="#AAA" stroke-linecap="round" stroke-linejoin="round" stroke-width="1.5" d="M1 3.915c0-1.02 0-1.53.208-1.92.182-.343.474-.622.832-.796C2.448 1 2.981 1 4.048 1H9.38c1.067 0 1.6 0 2.008.199.358.174.65.453.832.796.208.39.208.9.208 1.92v12.119c0 .443 0 .664-.097.785a.47.47 0 0 1-.352.18c-.159.01-.351-.113-.736-.358l-4.53-2.889-4.53 2.888c-.384.246-.576.369-.736.36a.49.49 0 0 1-.352-.18C1 16.697 1 16.476 1 16.033V3.914Z"/></svg>