<svg xmlns="http://www.w3.org/2000/svg" width="23" height="22" fill="none"><path fill="#5A62C3" d="M16.043 8.326h5.941c.561 0 1.016.455 1.016 1.016v5.412a3.735 3.735 0 0 1-3.735 3.735h-.017a3.735 3.735 0 0 1-3.736-3.735V8.857a.53.53 0 0 1 .531-.531ZM20.058 7.256a2.407 2.407 0 1 0 0-4.814 2.407 2.407 0 0 0 0 4.814Z"/><path fill="#7B83EB" d="M12.57 7.256a3.477 3.477 0 1 0 0-6.954 3.477 3.477 0 0 0 0 6.954ZM17.206 8.326H7.399a1.006 1.006 0 0 0-.98 1.029v6.171a6.033 6.033 0 0 0 5.883 6.172 6.033 6.033 0 0 0 5.884-6.171V9.355a1.006 1.006 0 0 0-.98-1.03Z"/><path fill="#01274E" d="M12.837 8.326v8.649a.985.985 0 0 1-.979.979H6.89a6.514 6.514 0 0 1-.47-2.428V9.352a1.004 1.004 0 0 1 .978-1.027h5.44Z" opacity=".1"/><path fill="#01274E" d="M12.303 8.326v9.184a.985.985 0 0 1-.979.979H7.14a6.913 6.913 0 0 1-.251-.535 6.514 6.514 0 0 1-.47-2.428V9.352a1.004 1.004 0 0 1 .978-1.027h4.905Z" opacity=".2"/><path fill="#01274E" d="M12.303 8.326v8.114a.986.986 0 0 1-.98.979h-4.62a6.514 6.514 0 0 1-.284-1.894V9.353a1.004 1.004 0 0 1 .979-1.027h4.905Z" opacity=".2"/><path fill="#01274E" d="M11.768 8.326v8.114a.987.987 0 0 1-.98.979H6.703a6.514 6.514 0 0 1-.283-1.894V9.353a1.004 1.004 0 0 1 .979-1.027h4.37Z" opacity=".2"/><path fill="#01274E" d="M12.837 5.56v1.685c-.09.005-.176.01-.267.01-.091 0-.177-.005-.268-.01-.18-.012-.36-.04-.534-.085A3.477 3.477 0 0 1 9.36 5.116a2.965 2.965 0 0 1-.17-.535h2.668c.54.002.977.44.98.98Z" opacity=".1"/><path fill="#01274E" d="M12.303 6.095v1.15c-.181-.012-.36-.041-.535-.086A3.477 3.477 0 0 1 9.36 5.116h1.963c.54.002.976.439.979.979Z" opacity=".2"/><path fill="#01274E" d="M12.303 6.095v1.15c-.181-.012-.36-.041-.535-.086A3.477 3.477 0 0 1 9.36 5.116h1.963c.54.002.976.439.979.979Z" opacity=".2"/><path fill="#01274E" d="M11.768 6.095v1.064A3.478 3.478 0 0 1 9.36 5.116h1.428c.54.002.977.44.979.979Z" opacity=".2"/><path fill="url(#a)" d="M.98 5.116h9.807a.98.98 0 0 1 .98.98v9.807a.98.98 0 0 1-.98.98H.98a.98.98 0 0 1-.98-.98V6.097a.98.98 0 0 1 .98-.981Z"/><path fill="#fff" d="M8.464 8.849h-1.96v5.338H5.255V8.849H3.304V7.813h5.16V8.85Z"/><defs><linearGradient id="a" x1="204.424" x2="972.33" y1="-71.491" y2="1258.47" gradientUnits="userSpaceOnUse"><stop stop-color="#5A62C3"/><stop offset=".5" stop-color="#4D55BD"/><stop offset="1" stop-color="#3940AB"/></linearGradient></defs></svg>