<svg xmlns="http://www.w3.org/2000/svg" width="42" height="39" fill="none"><path fill="#01274E" d="M34.243.804c2.646 1.611 3.549 5.238 2 7.992l-12.773 22.5c-1.549 2.753-5.032 3.693-7.677 2.081-2.645-1.612-3.549-5.239-2-7.992l12.774-22.5C28.114.066 31.534-.807 34.242.805Z"/><path fill="#0154AA" d="M3.784 34.879c3.645 4.583 11.465 4.649 19.22.797-6.098 2.59-11.997 2.324-14.846-1.262-3.844-4.849-.53-13.948 7.489-20.39 8.019-6.443 17.629-7.705 21.539-2.856 1.789 2.258 2.054 5.38.994 8.767 1.855-4.583 1.79-9.033-.663-12.088-4.573-5.778-15.906-4.384-25.184 3.122C2.988 18.34-.856 29.1 3.783 34.879Z"/><path fill="#0154AA" d="M37.766 21.367s2.706-3.539 3.424-6.833c0 0-.718 1.28-1.878 1.83 0 0-1.16 4.27-1.546 5.003ZM4.954 16.24c1.852-2.406 4.114-4.746 6.72-6.752.685-.535 1.44-1.07 2.125-1.538L11.262 3.74C9.548.93 5.914.06 3.035 1.666.224 3.271-.736 6.881.909 9.622l4.045 6.619ZM13.749 32.138a6.03 6.03 0 0 0 1.973 2.088c2.609 1.617 6.045.741 7.572-2.088l.128-.27 4.073-7.342c-.446.741-2.8 3.84-4.964.404l-4.073-7.275-.763-1.414c-.128.135-.255.202-.382.337-3.31 2.829-5.791 6.332-6.937 9.565l3.373 5.995Z"/></svg>